<?xml version="1.0" encoding="iso-8859-1"?>
<!-- Generator: Adobe Illustrator 16.0.3, SVG Export Plug-In . SVG Version: 6.00 Build 0)  -->
<!DOCTYPE svg PUBLIC "-//W3C//DTD SVG 1.1//EN" "http://www.w3.org/Graphics/SVG/1.1/DTD/svg11.dtd">
<svg version="1.1" id="Layer_1" xmlns="http://www.w3.org/2000/svg" xmlns:xlink="http://www.w3.org/1999/xlink" x="0px" y="0px"
	 width="16px" height="16px" viewBox="0 0 16 16" style="enable-background:new 0 0 16 16;" xml:space="preserve">
<path style="fill-rule:evenodd;clip-rule:evenodd;" d="M7.043,1.854H6.809v1.699c0,0.404-0.346,0.73-0.77,0.73H5.016
	c-0.42,0-0.766-0.326-0.766-0.73V1.854H4.016C3.385,2.297,2.973,2.996,2.973,3.798c0,1.343,1.145,2.43,2.555,2.43
	c1.414,0,2.559-1.087,2.559-2.43C8.086,2.996,7.672,2.297,7.043,1.854z"/>
<path style="fill-rule:evenodd;clip-rule:evenodd;" d="M5.527,6.472c-0.359,0-0.705-0.071-1.02-0.189v8.207
	c0,0.538,0.457,0.971,1.02,0.971c0.566,0,1.023-0.433,1.023-0.971V6.282C6.236,6.4,5.891,6.472,5.527,6.472z M5.527,14.854
	c-0.211,0-0.383-0.162-0.383-0.364s0.172-0.365,0.383-0.365c0.213,0,0.387,0.163,0.387,0.365S5.74,14.854,5.527,14.854z"/>
<g>
	<path style="fill-rule:evenodd;clip-rule:evenodd;" d="M12.09,9.5c0-0.251,0.627-0.751,0.627-1c0-0.25-0.107-0.5-0.627-0.5h-1.875
		C9.699,8,9.592,8.25,9.592,8.5c0,0.249,0.623,0.749,0.623,1c0,0.352-0.938,0.586-0.938,1.001v4.25c0,0.413,0.422,0.749,0.938,0.749
		h1.875c0.52,0,0.938-0.336,0.938-0.749v-4.25C13.027,10.086,12.09,9.752,12.09,9.5z"/>
</g>
<path style="fill-rule:evenodd;clip-rule:evenodd;" d="M11.779,7.75V3.498l0.311-0.999V1.5h-1.875v0.999l0.314,0.999V7.75H11.779z"
	/>
</svg>
