<?xml version="1.0" encoding="utf-8"?>
<!-- Generator: Adobe Illustrator 16.0.0, SVG Export Plug-In . SVG Version: 6.00 Build 0)  -->
<!DOCTYPE svg PUBLIC "-//W3C//DTD SVG 1.1//EN" "http://www.w3.org/Graphics/SVG/1.1/DTD/svg11.dtd">
<svg version="1.1" id="Layer_1" xmlns="http://www.w3.org/2000/svg" xmlns:xlink="http://www.w3.org/1999/xlink" x="0px" y="0px"
	 width="16px" height="16px" viewBox="0 0 16 16" enable-background="new 0 0 16 16" xml:space="preserve">
<g id="Doc_Settings16">
	<path d="M1.796,9.748v4.275c0,0.106,0.091,0.193,0.204,0.193s0.204-0.087,0.204-0.193V9.748c0-0.107-0.091-0.193-0.204-0.193
		S1.796,9.641,1.796,9.748z M7,9.8V5.6l0.25-0.8V4h-1.5v0.8L6,5.6v4.2H7z M7.25,11.2c0-0.2,0.5-0.601,0.5-0.8
		c0-0.2-0.086-0.4-0.5-0.4h-1.5c-0.414,0-0.5,0.2-0.5,0.4c0,0.199,0.5,0.6,0.5,0.8C5.75,11.482,5,11.669,5,12v3.4
		C5,15.73,5.336,16,5.75,16h1.5C7.664,16,8,15.73,8,15.4V12C8,11.669,7.25,11.4,7.25,11.2z M5.875,15.4
		c0,0.108-0.056,0.199-0.125,0.199S5.625,15.512,5.625,15.4v-3.2c0-0.11,0.056-0.2,0.125-0.2s0.125,0.09,0.125,0.2V15.4z
		 M7.375,15.4c0,0.108-0.057,0.199-0.125,0.199S7.125,15.512,7.125,15.4v-3.2c0-0.11,0.057-0.2,0.125-0.2s0.125,0.09,0.125,0.2V15.4
		z M1.182,8.625v6.566c0,0.43,0.366,0.775,0.818,0.775s0.818-0.348,0.818-0.775V8.625C2.564,8.721,2.289,8.775,2,8.775
		S1.436,8.721,1.182,8.625z M2,15.482c-0.17,0-0.307-0.131-0.307-0.291c0-0.162,0.137-0.293,0.307-0.293
		c0.169,0,0.307,0.131,0.307,0.293C2.307,15.352,2.169,15.482,2,15.482z M2.409,9.748v4.275c0,0.215-0.184,0.391-0.409,0.391
		s-0.409-0.176-0.409-0.391V9.748c0-0.215,0.184-0.389,0.409-0.389S2.409,9.533,2.409,9.748z M3.21,5.083H3.022v1.36
		c0,0.322-0.274,0.584-0.613,0.584H1.591c-0.339,0-0.613-0.262-0.613-0.584v-1.36H0.79C0.286,5.438-0.046,5.997-0.046,6.639
		c0,1.073,0.916,1.943,2.046,1.943s2.046-0.87,2.046-1.943C4.046,5.997,3.714,5.438,3.21,5.083z"/>
</g>
<polygon points="15,4 15,16 10,16 10,15 14,15 14,4 11,4 11,1 3,1 3,3 2,3 2,0 11,0 "/>
</svg>
