<svg xmlns="http://www.w3.org/2000/svg" width="16" height="16" viewBox="0 0 16 16"><path d="M7 7v7h9V7H7zm8 6H8V8h7v5zM10 14h3v1h-3zM9 15h5v1H9z"/><path d="M6.5 14.389v-.677c-.729-.41-1.354-1.251-1.796-2.364a10.877 10.877 0 011.796-.284v-.997c-.738.06-1.451.167-2.105.347-.2-.739-.334-1.548-.371-2.414H6.5V7H4.024c.036-.866.171-1.675.37-2.413.803.221 1.68.357 2.606.394v1.63h1v-1.63a11.57 11.57 0 002.605-.395c.168.624.276 1.308.332 2.024h1.006a11.617 11.617 0 00-.392-2.334 8.054 8.054 0 001.197-.579 6.493 6.493 0 011.157 2.913h1.023C14.489 2.89 11.34 0 7.5 0 3.357 0 0 3.357 0 7.5S3.357 15 7.5 15a7.427 7.427 0 002.945-.611H6.5zm5.615-11.436a7.144 7.144 0 01-.871.401 7.403 7.403 0 00-.936-1.71c.68.328 1.286.778 1.807 1.309zM8 1.074c.945.252 1.756 1.217 2.296 2.578-.705.182-1.478.297-2.296.33V1.074zm-1 0v2.908a10.977 10.977 0 01-2.296-.33C5.244 2.291 6.055 1.326 7 1.074zm-2.309.571a7.443 7.443 0 00-.937 1.71 7.046 7.046 0 01-.869-.402 6.46 6.46 0 011.806-1.308zm-2.44 2.053c.365.216.764.411 1.196.579-.238.836-.39 1.751-.429 2.723H1.036a6.481 6.481 0 011.215-3.302zM1.036 8h1.981c.039.972.191 1.887.43 2.723a8.09 8.09 0 00-1.196.579A6.481 6.481 0 011.036 8zm1.849 4.047c.269-.146.557-.282.87-.401.257.647.573 1.225.937 1.71a6.474 6.474 0 01-1.807-1.309z" fill-rule="evenodd" clip-rule="evenodd"/></svg>