<?xml version="1.0" encoding="iso-8859-1"?>
<!-- Generator: Adobe Illustrator 22.0.1, SVG Export Plug-In . SVG Version: 6.00 Build 0)  -->
<svg version="1.1" id="Layer_1" xmlns="http://www.w3.org/2000/svg" xmlns:xlink="http://www.w3.org/1999/xlink" x="0px" y="0px"
	 width="16px" height="16px" viewBox="0 0 16 16" style="enable-background:new 0 0 16 16;" xml:space="preserve">
<path style="fill:#CCCCCC;" d="M14.222,0H1.778C0.79,0,0,0.8,0,1.778v12.444C0,15.2,0.791,16,1.778,16h12.444
	C15.2,16,16,15.2,16,14.222V1.778C16,0.8,15.2,0,14.222,0 M14.781,14.781H1.218V1.217h13.564L14.781,14.781L14.781,14.781z"/>
<path style="fill:#555555;" d="M12.995,8.017c-0.001,0-0.001,0-0.001,0c0-1.35-0.003-2.701,0.004-4.051
	c0.001-0.141-0.044-0.203-0.171-0.252c-0.58-0.224-1.159-0.454-1.732-0.695c-0.142-0.06-0.224-0.044-0.334,0.064
	C9.345,4.469,7.923,5.849,6.509,7.236C6.4,7.343,6.34,7.336,6.227,7.249C5.478,6.671,4.711,6.118,3.979,5.521
	c-0.276-0.224-0.488-0.27-0.783-0.07C3.068,5.538,3.007,5.603,3.008,5.764C3.015,7.162,3.028,8.561,3,9.959
	c-0.007,0.377,0.083,0.597,0.446,0.716c0.129,0.042,0.204,0.041,0.308-0.04c0.82-0.631,1.647-1.253,2.465-1.885
	C6.339,8.657,6.4,8.667,6.504,8.77c1.422,1.389,2.851,2.771,4.273,4.159c0.102,0.1,0.181,0.106,0.303,0.056
	c0.569-0.234,1.139-0.467,1.714-0.686c0.152-0.058,0.206-0.125,0.205-0.293C12.991,10.676,12.995,9.346,12.995,8.017z M3.915,9.148
	c0-0.781,0-1.517,0-2.292c0.436,0.389,0.851,0.759,1.276,1.137C4.77,8.373,4.359,8.746,3.915,9.148z M10.555,9.918
	C9.694,9.27,8.859,8.64,7.997,7.992c0.854-0.639,1.693-1.266,2.558-1.913C10.555,7.369,10.555,8.624,10.555,9.918z"/>
</svg>
