<?xml version="1.0" encoding="iso-8859-1"?>
<!-- Generator: Adobe Illustrator 19.2.1, SVG Export Plug-In . SVG Version: 6.00 Build 0)  -->
<svg version="1.1" id="Layer_1" xmlns="http://www.w3.org/2000/svg" xmlns:xlink="http://www.w3.org/1999/xlink" x="0px" y="0px"
	 width="16px" height="16px" viewBox="0 0 16 16" style="enable-background:new 0 0 16 16;" xml:space="preserve">
<g>
	<circle style="fill:#FFFFFF;" cx="8" cy="8" r="7.5"/>
	<path style="fill:#555555;" d="M8,1c3.86,0,7,3.14,7,7s-3.14,7-7,7s-7-3.14-7-7S4.14,1,8,1 M8,0C3.582,0,0,3.582,0,8s3.582,8,8,8
		s8-3.582,8-8S12.418,0,8,0L8,0z"/>
</g>
<polygon style="fill:#555555;" points="11.5,10.761 8.739,8 11.498,5.24 10.759,4.501 8,7.263 5.238,4.5 4.501,5.238 7.262,8 
	4.5,10.761 5.238,11.5 8,8.739 10.761,11.499 "/>
</svg>
