<?xml version="1.0" encoding="iso-8859-1"?>
<!-- Generator: Adobe Illustrator 16.0.3, SVG Export Plug-In . SVG Version: 6.00 Build 0)  -->
<!DOCTYPE svg PUBLIC "-//W3C//DTD SVG 1.1//EN" "http://www.w3.org/Graphics/SVG/1.1/DTD/svg11.dtd">
<svg version="1.1" id="Layer_1" xmlns="http://www.w3.org/2000/svg" xmlns:xlink="http://www.w3.org/1999/xlink" x="0px" y="0px"
	 width="16px" height="16px" viewBox="0 0 16 16" style="enable-background:new 0 0 16 16;" xml:space="preserve">
<g id="Cancel__16_copy_3_3_">
	<path style="fill-rule:evenodd;clip-rule:evenodd;fill:#5E9FCB;" d="M8,0C3.581,0,0,3.582,0,8s3.581,8,8,8c4.418,0,8-3.582,8-8
		S12.418,0,8,0z"/>
</g>
<g id="_x31_6_3_">
	<g>
		<g>
			<path style="fill:#FFFFFF;" d="M5.504,3.962l0.019,0.007c0.308,0.176,6.447,3.722,6.967,4.038
				c-0.438,0.26-6.563,3.801-6.989,4.034L5.504,3.962 M5.495,3.458C5.222,3.458,5,3.686,5,3.97c0,0.289,0,7.653,0,8.071
				c0,0.31,0.241,0.501,0.498,0.501c0.087,0,0.175-0.021,0.257-0.067c0.448-0.248,6.613-3.814,6.989-4.037
				c0.338-0.2,0.345-0.675,0-0.875c-0.523-0.304-6.666-3.852-6.974-4.027C5.677,3.482,5.583,3.458,5.495,3.458L5.495,3.458z"/>
		</g>
	</g>
</g>
</svg>
