<?xml version="1.0" encoding="iso-8859-1"?>
<!-- Generator: Adobe Illustrator 21.1.0, SVG Export Plug-In . SVG Version: 6.00 Build 0)  -->
<svg version="1.1" id="Layer_1" xmlns="http://www.w3.org/2000/svg" xmlns:xlink="http://www.w3.org/1999/xlink" x="0px" y="0px"
	 width="16px" height="16px" viewBox="0 0 16 16" style="enable-background:new 0 0 16 16;" xml:space="preserve">
<g id="Cancel__16_copy_3_1_">
	<g>
		<path style="fill:#7E506A;" d="M8,0.75c3.998,0,7.25,3.252,7.25,7.25S11.998,15.25,8,15.25S0.75,11.998,0.75,8S4.002,0.75,8,0.75
			 M8,0C3.581,0,0,3.582,0,8s3.581,8,8,8c4.418,0,8-3.582,8-8S12.418,0,8,0L8,0z"/>
	</g>
</g>
<g id="New_Symbol_4_2_">
	<g id="_x31_6_17_">
		<path style="fill:#7E506A;" d="M11,5.693C11,5.311,10.689,5,10.305,5h-4.61C5.311,5,5,5.311,5,5.693v4.612
			C5,10.689,5.311,11,5.694,11h4.61C10.689,11,11,10.689,11,10.306V5.693z"/>
	</g>
</g>
</svg>
