<?xml version="1.0" encoding="iso-8859-1"?>
<!-- Generator: Adobe Illustrator 16.0.3, SVG Export Plug-In . SVG Version: 6.00 Build 0)  -->
<!DOCTYPE svg PUBLIC "-//W3C//DTD SVG 1.1//EN" "http://www.w3.org/Graphics/SVG/1.1/DTD/svg11.dtd">
<svg version="1.1" id="Layer_1" xmlns="http://www.w3.org/2000/svg" xmlns:xlink="http://www.w3.org/1999/xlink" x="0px" y="0px"
	 width="16px" height="16px" viewBox="0.5 0.5 16 16" enable-background="new 0.5 0.5 16 16" xml:space="preserve">
<g>
	<path d="M8.501,0.499C4.082,0.499,0.5,4.081,0.5,8.5s3.582,8,8.001,8c4.417,0,7.999-3.581,7.999-8
		S12.918,0.499,8.501,0.499z M8.501,15.296c-3.748,0-6.796-3.049-6.796-6.796c0-3.748,3.048-6.796,6.796-6.796
		c3.747,0,6.795,3.048,6.795,6.796C15.296,12.247,12.248,15.296,8.501,15.296z"/>
	<rect x="7.618" y="11.564" width="1.833" height="1.731"/>
	<path d="M11.003,4.476c-0.618-0.521-1.457-0.781-2.509-0.781c-1,0-1.811,0.256-2.426,0.77
		C5.453,4.98,5.121,5.604,5.075,6.34l1.683,0.198c0.117-0.515,0.333-0.897,0.647-1.146C7.717,5.14,8.107,5.015,8.572,5.015
		c0.484,0,0.867,0.122,1.152,0.36c0.285,0.242,0.426,0.53,0.426,0.867c0,0.244-0.079,0.465-0.239,0.667
		c-0.106,0.127-0.427,0.397-0.96,0.808c-0.535,0.411-0.891,0.781-1.07,1.11c-0.179,0.327-0.268,0.748-0.268,1.256
		c0,0.049,0.001,0.187,0.006,0.416h1.663c-0.011-0.479,0.034-0.81,0.127-0.994c0.094-0.183,0.335-0.429,0.72-0.731
		c0.75-0.588,1.236-1.053,1.467-1.396c0.229-0.34,0.342-0.703,0.342-1.084C11.938,5.601,11.626,4.997,11.003,4.476z"/>
</g>
</svg>
